<svg width="371" height="780" viewBox="0 0 371 780" fill="none" xmlns="http://www.w3.org/2000/svg">
<path d="M234.35 278.28L356.07 779.05" stroke="white" stroke-width="0.74" stroke-miterlimit="10"/>
<path d="M175.69 0L228.82 218.6L219.01 208.33L168.69 1.31006L175.69 0Z" fill="white"/>
<path d="M268.62 412.4L117.45 254" stroke="white" stroke-width="0.74" stroke-miterlimit="10"/>
<path d="M219.02 208.34L291.1 283.86L-78.58 247.49L-71.91 179.72L219.02 208.34Z" fill="white"/>
<path d="M300.61 544L178.93 43.4199" stroke="white" stroke-width="0.74" stroke-miterlimit="10"/>
<path d="M323.1 352.79C342.651 352.79 358.5 336.941 358.5 317.39C358.5 297.839 342.651 281.99 323.1 281.99C303.549 281.99 287.7 297.839 287.7 317.39C287.7 336.941 303.549 352.79 323.1 352.79Z" fill="white"/>
<path d="M323.1 364.25C348.98 364.25 369.96 343.27 369.96 317.39C369.96 291.51 348.98 270.53 323.1 270.53C297.22 270.53 276.24 291.51 276.24 317.39C276.24 343.27 297.22 364.25 323.1 364.25Z" stroke="white" stroke-width="0.74" stroke-miterlimit="10"/>
</svg>
