<svg width="575" height="932" viewBox="0 0 575 932" fill="none" xmlns="http://www.w3.org/2000/svg">
<path d="M0 762.28L117.54 557.64L117.57 572.53L6.27002 766.34L0 762.28Z" fill="white"/>
<path d="M117.57 572.52L117.32 463L481.94 884.66L427.89 931.39L117.57 572.52Z" fill="white"/>
<path d="M227.63 526.18L227.44 443.14L574.39 844.38L533.41 879.8L227.63 526.18Z" fill="#B7B7B7"/>
<path d="M298.16 258.09L28.9 726.92" stroke="white" stroke-width="0.77" stroke-miterlimit="10"/>
<path d="M454.62 4.06006L337.08 208.7L337.04 193.81L448.35 0L454.62 4.06006Z" fill="white"/>
<path d="M156.56 508.07L425.71 39.4204" stroke="white" stroke-width="0.77" stroke-miterlimit="10"/>
<path d="M24.76 303.52L116.96 303.31L117.32 463L24.76 303.52Z" fill="#7A7A7A"/>
<path d="M117.32 463L116.96 303.31L209.16 303.1L117.32 463Z" fill="#B7B7B7"/>
</svg>
