<svg width="586" height="818" viewBox="0 0 586 818" fill="none" xmlns="http://www.w3.org/2000/svg">
<path d="M104.268 383.05L180.56 410.292L260.805 185.559L184.513 158.317L104.268 383.05Z" fill="white"/>
<path d="M5.50381 340.29C22.9938 291.3 76.9138 265.76 125.904 283.25C130.124 284.76 134.174 286.53 138.034 288.57L75.2938 464.28C71.0138 463.41 66.7638 462.22 62.5438 460.71C13.5538 443.22 -11.9862 389.3 5.51382 340.29H5.50381Z" fill="#7A7A7A"/>
<path d="M233.984 19.8398L184.534 158.33L128.974 138.49L178.424 0" fill="white"/>
<path d="M75.2838 464.27L138.024 288.56C178.984 309.99 198.944 358.88 182.954 403.65C166.964 448.44 120.544 473.63 75.2838 464.27Z" fill="#B7B7B7"/>
<path d="M405.944 237.39L128.984 138.49" stroke="white" stroke-width="2.07" stroke-miterlimit="10"/>
<path d="M361.664 221.58L584.504 799.99" stroke="white" stroke-width="2.07" stroke-miterlimit="10"/>
<path d="M342.154 214.61L569.844 805.64" stroke="white" stroke-width="2.07" stroke-miterlimit="10"/>
<path d="M322.634 207.64L555.194 811.27" stroke="white" stroke-width="2.07" stroke-miterlimit="10"/>
<path d="M303.114 200.67L540.534 816.92" stroke="white" stroke-width="2.07" stroke-miterlimit="10"/>
</svg>
