<svg viewBox="0 0 481.47637999999995 598.0551981351981" xmlns="http://www.w3.org/2000/svg">
  <path d="M479.15,11.98c-4.68-4.68-7.3-7.3-11.98-11.98h-72.74s-154.85,154.85-154.85,154.85L84.72,0H11.98C7.3,4.68,4.68,7.3,0,11.98v71.87h.87l-.87.87,154.85,154.85h0s0,0,0,0c-33.6,33.7-54.69,77.23-59.39,122.61-5.35,51.72,11.18,99.71,46.57,135.12l97.56,97.96,97.91-97.91c35.42-35.42,51.98-83.43,46.62-135.18-4.71-45.48-25.88-89.11-59.61-122.84l-.23.23h0s154.85-154.85,154.85-154.85l-.87-.87h.87V11.98ZM264.96,374.53c1.62,15.6-2.48,28.43-12.17,38.12l-13.02,13.02-12.96-13.01c-9.69-9.69-13.79-22.52-12.17-38.12,1.86-17.92,11.01-36.29,25.12-50.41l.04-.04c14.13,14.13,23.3,32.52,25.16,50.46Z" fill="#ffffff"/>
</svg>
