<svg width="397" height="368" viewBox="0 0 397 368" fill="none" xmlns="http://www.w3.org/2000/svg">
<path d="M60.86 218.49H106.75L106.75 83.31H60.86L60.86 218.49Z" fill="white"/>
<path d="M0 214.49C0 185.02 23.9 161.12 53.37 161.12C55.91 161.12 58.4 161.3 60.85 161.65V267.34C58.4 267.69 55.91 267.87 53.37 267.87C23.9 267.87 0 243.97 0 214.49Z" fill="#7A7A7A"/>
<path d="M60.86 0V83.3H27.44V0" fill="white"/>
<path d="M60.85 267.34V161.65C86.78 165.28 106.75 187.56 106.75 214.49C106.75 241.42 86.79 263.71 60.85 267.34Z" fill="#B7B7B7"/>
<path d="M194.04 83.3H27.44" stroke="white" stroke-width="1.17" stroke-miterlimit="10"/>
<path d="M167.4 83.3L396.49 349.44" stroke="white" stroke-width="1.17" stroke-miterlimit="10"/>
<path d="M155.67 83.3L389.74 355.25" stroke="white" stroke-width="1.17" stroke-miterlimit="10"/>
<path d="M143.93 83.3L383 361.05" stroke="white" stroke-width="1.17" stroke-miterlimit="10"/>
<path d="M132.18 83.3L376.25 366.86" stroke="white" stroke-width="1.17" stroke-miterlimit="10"/>
</svg>
