<svg width="316" height="188" viewBox="0 0 316 188" fill="none" xmlns="http://www.w3.org/2000/svg">
<path d="M315.447 9.65002L230.487 109.48L230.337 86.67L304.107 0" fill="white"/>
<path d="M230.297 79.83L191.727 125.14L180.397 115.49L230.137 57.05L230.297 79.83Z" fill="white"/>
<path d="M40.1469 153.87C15.5369 132.92 12.5669 95.99 33.5169 71.38C54.4669 46.77 91.3969 43.8 116.007 64.75C140.617 85.7 143.587 122.63 122.637 147.24C101.687 171.85 64.7569 174.82 40.1469 153.87Z" fill="white"/>
<path d="M19.0869 59.1C-8.64306 91.68 -4.71306 140.57 27.8669 168.3C60.4469 196.03 109.337 192.1 137.067 159.52C164.797 126.94 160.867 78.05 128.287 50.32C95.707 22.59 46.8169 26.52 19.0869 59.1Z" stroke="white" stroke-width="1.22" stroke-miterlimit="10"/>
<path d="M230.487 109.48L225.167 115.73L213.827 106.07L230.337 86.67L230.487 109.48Z" fill="#7A7A7A"/>
</svg>
