<svg viewBox="0 0 481.47637999999995 598.0551981351981" xmlns="http://www.w3.org/2000/svg" data-name="Layer 2" id="Layer_2" style="max-height: 500px" width="481.47637999999995" height="598.0551981351981">
  <defs>
    <style>
      .cls-1 {
        fill: #ffffff;
      }
    </style>
  </defs>
  <g data-name="Layer 1" id="Layer_1-2">
    <path d="M479.15,11.98c-4.68-4.68-7.3-7.3-11.98-11.98h-72.74s-154.85,154.85-154.85,154.85L84.72,0H11.98C7.3,4.68,4.68,7.3,0,11.98v71.87h.87l-.87.87,154.85,154.85h0s0,0,0,0c-33.6,33.7-54.69,77.23-59.39,122.61-5.35,51.72,11.18,99.71,46.57,135.12l97.56,97.96,97.91-97.91c35.42-35.42,51.98-83.43,46.62-135.18-4.71-45.48-25.88-89.11-59.61-122.84l-.23.23h0s154.85-154.85,154.85-154.85l-.87-.87h.87V11.98ZM264.96,374.53c1.62,15.6-2.48,28.43-12.17,38.12l-13.02,13.02-12.96-13.01c-9.69-9.69-13.79-22.52-12.17-38.12,1.86-17.92,11.01-36.29,25.12-50.41l.04-.04c14.13,14.13,23.3,32.52,25.16,50.46Z" class="cls-1"/>
    <g>
      <path d="M568.69,170.08h22l43.72,43.72h4.18l43.72-43.72h22.28l2.78,2.78v135.88l-2.78,3.06h-29.79l-2.78-3.06v-75.18h-3.06l-30.35,30.35h-4.18l-30.35-30.35h-3.06v75.18l-2.78,3.06h-29.52l-3.06-3.06v-135.88l3.06-2.78Z" class="cls-1"/>
      <path d="M738.65,170.08h135.88l2.78,2.78v29.79l-2.78,2.78h-100.52l-3.06,3.06v11.7l3.06,3.06h64.88l3.06,2.78v29.52l-3.06,3.06h-64.88l-3.06,3.06v11.7c1.11,1.11,1.95,1.95,3.06,3.06h100.52l2.78,2.78v29.52l-3.06,3.06h-135.61l-3.06-3.06v-135.88l3.06-2.78Z" class="cls-1"/>
      <path d="M908.71,170.08h88.55c27.57,0,50.12,22.55,50.12,50.12v41.49c0,27.57-22.55,50.12-50.12,50.12h-88.55l-3.06-3.06v-135.88l3.06-2.78ZM941.01,273.39c1.11,1.11,1.95,1.95,3.06,3.06h53.18c8.08,0,14.76-6.68,14.76-14.76v-41.49c0-8.08-6.68-14.76-14.76-14.76h-53.18c-1.11,1.11-1.95,1.95-3.06,3.06v64.88Z" class="cls-1"/>
      <path d="M1075.73,308.75v-29.52c1.11-1.11,1.95-1.67,3.06-2.78h47.06l3.06-3.06v-64.88c-1.11-1.11-1.95-1.95-3.06-3.06h-47.06c-1.11-1.11-1.95-1.67-3.06-2.78v-29.79l3.06-2.78h135.88l2.78,2.78v29.79c-1.11,1.11-1.67,1.67-2.78,2.78h-47.34c-1.11,1.11-1.95,1.95-3.06,3.06v64.88c1.11,1.11,1.95,1.95,3.06,3.06h47.34c1.11,1.11,1.67,1.67,2.78,2.78v29.52l-3.06,3.06h-135.61l-3.06-3.06Z" class="cls-1"/>
      <path d="M1298.99,170.08h35.36l53.18,53.18v85.48l-2.78,3.06h-29.79l-2.78-3.06v-26.45c-1.11-1.11-1.95-1.95-3.06-3.06h-64.88c-1.11,1.11-1.95,1.95-3.06,3.06v26.45l-2.78,3.06h-29.52l-3.06-3.06v-85.48l53.18-53.18ZM1281.17,237.74v3.06c1.11,1.39,1.95,1.95,3.06,3.06h64.88c1.11-1.11,1.95-1.67,3.06-3.06v-3.06l-33.41-33.14h-4.18l-33.41,33.14Z" class="cls-1"/>
    </g>
  </g>
</svg>