<svg width="92" height="16" viewBox="0 0 92 16" fill="none" xmlns="http://www.w3.org/2000/svg">
<path d="M67.22 3.81576H72.3171L72.6348 3.49722V0.320226L72.3171 0.00336838H57.6631L57.3436 0.320226V3.49722L57.6631 3.81576H62.7601L63.0778 4.13262V11.122L62.7584 11.4406H57.6614L57.3436 11.7574V14.9344L57.6614 15.2529H72.3171L72.6348 14.9344V11.7574L72.3171 11.4406H67.22L66.9006 11.122V4.13262L67.22 3.81576Z" fill="white"/>
<path d="M86.0163 0.00336897H82.1935L76.4593 5.72196V14.9361L76.7787 15.2529H79.9644L80.2821 14.9344V12.0743L80.5999 11.7574H87.61L87.9277 12.0743V14.9344L88.2471 15.2513H91.4328L91.7505 14.9327V5.71859L86.0163 0V0.00336897ZM80.5999 7.94502L80.2804 7.62816V6.9995L83.7906 3.49891H84.4159L87.926 6.9995V7.62816L87.6083 7.9467H80.5999V7.94502Z" fill="white"/>
<path d="M34.4052 3.50059V0.323597C34.2801 0.198876 34.2108 0.129775 34.0858 0.00505447H19.4317C19.3066 0.129775 19.2374 0.198876 19.1123 0.323597V14.9378L19.4283 15.2529L34.0858 15.2496L34.4035 14.9327V11.7557L34.0858 11.4389H23.2545L22.9368 11.1203V9.85458C23.0618 9.72986 23.1311 9.66076 23.2562 9.53604H30.2647C30.3897 9.41132 30.459 9.34222 30.5841 9.2175V6.0405C30.459 5.91578 30.3897 5.84668 30.2647 5.72196H23.2562C23.1311 5.59724 23.0618 5.52814 22.9368 5.40342V4.13431C23.0618 4.00959 23.1311 3.94048 23.2562 3.81576H34.0875C34.2125 3.69104 34.2818 3.62194 34.4069 3.49722L34.4052 3.50059Z" fill="white"/>
<path d="M53.5208 5.40342C53.5208 2.42025 51.0957 0.00336838 48.1061 0.00336838H38.5474C38.4223 0.128089 38.353 0.19719 38.228 0.321911V14.9361C38.353 15.0608 38.4223 15.1299 38.5457 15.2546H48.1044C51.0957 15.2546 53.5192 12.8378 53.5192 9.85458V5.4051L53.5208 5.40342ZM49.698 9.85121C49.698 10.7293 48.9849 11.4406 48.1044 11.4406H42.3702C42.2451 11.3158 42.1758 11.2467 42.0508 11.122V4.13262C42.1758 4.0079 42.2451 3.9388 42.3702 3.81408H48.1044C48.9849 3.81408 49.698 4.52532 49.698 5.40342V9.85121Z" fill="white"/>
<path d="M14.9735 0.00359565H12.5889L7.87205 4.70757H7.42082L2.70401 0.00359565H0.319409C0.194348 0.128316 0.125061 0.197418 0 0.322138V14.9363C0.125061 15.061 0.194348 15.1301 0.319409 15.2549H3.50507C3.63013 15.1301 3.69942 15.061 3.82448 14.9363V6.51265L4.94327 7.62839L5.73419 8.41716L7.32787 10.0065H7.965L9.55699 8.41884L10.3496 7.62839L11.4701 6.51096V14.9346C11.5951 15.0594 11.6644 15.1285 11.7895 15.2532H14.9752C15.1002 15.1285 15.1695 15.0594 15.2946 14.9346V2.69857V0.320453C15.1695 0.195733 15.1002 0.126631 14.9752 0.00191116L14.9735 0.00359565Z" fill="white"/>
</svg>
