<svg width="43" height="61" viewBox="0 0 43 61" fill="none" xmlns="http://www.w3.org/2000/svg">
<path d="M21.4783 41.729C22.8681 41.729 23.9947 40.6055 23.9947 39.2195C23.9947 37.8335 22.8681 36.7099 21.4783 36.7099C20.0885 36.7099 18.9619 37.8335 18.9619 39.2195C18.9619 40.6055 20.0885 41.729 21.4783 41.729Z" fill="white"/>
<path d="M17.6859 17.6108L20.2142 15.0895L5.08354 0H0.921054C0.572913 0.34888 0.376872 0.542702 0.0270405 0.891581V5.04274L15.3098 20.2839C16.0483 19.3485 16.846 18.4502 17.6859 17.6125V17.6108Z" fill="white"/>
<path d="M40.2408 7.72423L42.9296 5.04274V0.891581C42.5797 0.542702 42.3854 0.34888 42.0356 0H37.8731L35.186 2.6798L27.4271 10.4175L18.9517 18.8715C18.0341 19.7867 17.1891 20.7558 16.4167 21.7704C16.3914 21.8041 16.366 21.8362 16.3407 21.8699C16.2258 22.0216 16.1125 22.1749 16.001 22.33C15.9925 22.3401 15.9858 22.3519 15.9773 22.362C15.8523 22.5339 15.7306 22.7075 15.6106 22.8828C12.4368 27.4991 10.7265 32.9565 10.7265 38.6751C10.7265 46.1566 13.6468 53.1898 18.9517 58.4786L21.48 61L24.0082 58.4786C29.3132 53.1881 32.2335 46.1549 32.2335 38.6751C32.2335 33.0104 30.557 27.6019 27.439 23.0126L25.2724 25.1733C24.2144 26.2283 23.29 27.3946 22.5109 28.6503C26.2391 35.4492 25.8977 43.8948 21.4817 50.3887C17.0268 43.8392 16.7176 35.3059 20.5471 28.4784L20.5404 28.4716C21.4699 26.8216 22.6309 25.2896 24.0099 23.9143L32.4904 15.4569L40.2442 7.72423H40.2408Z" fill="white"/>
<path d="M8.93845 38.6751C8.93845 35.7661 9.35757 32.9143 10.1688 30.1857C8.27935 27.7654 7.15211 24.7249 7.15211 21.4199C7.15211 19.4294 7.56109 17.5333 8.29963 15.8108L2.993 10.5186C1.09343 13.7125 0 17.4389 0 21.4199C0 28.5812 3.52705 34.9183 8.94014 38.8065C8.94014 38.7627 8.93676 38.7189 8.93676 38.6751H8.93845Z" fill="white"/>
<path d="M27.0655 8.2585L32.362 2.97643C29.1678 1.0972 25.4549 0 21.4783 0C17.5017 0 13.7769 1.08203 10.5828 2.96295L15.8928 8.2585C17.6099 7.53209 19.4976 7.13097 21.48 7.13097C23.4624 7.13097 25.3501 7.53209 27.0672 8.2585H27.0655Z" fill="white"/>
<path d="M34.6587 15.8125C35.3972 17.535 35.8062 19.4294 35.8062 21.4199C35.8062 24.7249 34.6773 27.7654 32.7895 30.1857C33.599 32.9143 34.0182 35.7677 34.0182 38.6751C34.0182 38.7189 34.0148 38.7627 34.0148 38.8065C39.4279 34.9166 42.9566 28.5812 42.9566 21.4199C42.9566 17.4389 41.848 13.726 39.9518 10.5321L34.6587 15.8108V15.8125Z" fill="white"/>
</svg>
