<svg width="117" height="205" viewBox="0 0 117 205" fill="none" xmlns="http://www.w3.org/2000/svg">
<path d="M85.4461 190.409H91.9182L92.3221 190.005V185.957L91.9182 185.553H73.3051L72.9011 185.957V190.005L73.3051 190.409H79.7818L80.1857 190.813V199.713L79.7818 200.117H73.3051L72.9011 200.526V204.57L73.3051 204.974H91.9182L92.3221 204.57V200.526L91.9182 200.117H85.4461L85.0421 199.713V190.813L85.4461 190.409Z" fill="white"/>
<path d="M109.315 185.553H104.459L97.174 192.837V204.57L97.5779 204.974H101.622L102.026 204.57V200.93L102.43 200.526H111.335L111.739 200.93V204.57L112.143 204.974H116.186L116.59 204.57V192.837L109.306 185.553H109.315ZM102.439 195.669L102.035 195.266V194.467L106.492 190.01H107.286L111.743 194.467V195.27L111.339 195.674H102.439V195.669Z" fill="white"/>
<path d="M43.772 190.01V185.966C43.616 185.81 43.5242 185.718 43.3681 185.562H24.755C24.5989 185.718 24.5071 185.81 24.351 185.966V204.579L24.7504 204.978H43.3681L43.772 204.57V200.526L43.3681 200.122H29.6114L29.2074 199.718V198.107C29.3635 197.951 29.4553 197.859 29.6114 197.703H38.5117C38.6678 197.547 38.7596 197.455 38.9156 197.299V193.255C38.7596 193.099 38.6678 193.007 38.5117 192.851H29.6114C29.4553 192.695 29.3635 192.603 29.2074 192.447V190.832C29.3635 190.675 29.4553 190.584 29.6114 190.428H43.3681C43.5242 190.272 43.616 190.18 43.772 190.024V190.01Z" fill="white"/>
<path d="M68.0493 192.429C68.0493 188.633 64.9693 185.553 61.1732 185.553H49.0322C48.8761 185.709 48.7843 185.801 48.6283 185.957V204.565C48.7843 204.721 48.8761 204.813 49.0322 204.969H61.1732C64.9693 204.969 68.0493 201.889 68.0493 198.093V192.424V192.429ZM63.1929 198.098C63.1929 199.213 62.2886 200.122 61.1686 200.122H53.884C53.7279 199.966 53.6361 199.874 53.4801 199.718V190.818C53.6361 190.662 53.7279 190.57 53.884 190.414H61.1686C62.284 190.414 63.1929 191.318 63.1929 192.438V198.102V198.098Z" fill="white"/>
<path d="M19.0909 185.553H16.0614L10.0712 191.543H9.49744L3.50727 185.553H0.477757C0.321691 185.709 0.229888 185.801 0.073822 185.957V204.57C0.229888 204.726 0.321691 204.818 0.477757 204.974H4.52169C4.67776 204.818 4.76956 204.726 4.92563 204.57V193.843L6.34858 195.266L7.35383 196.271L9.37809 198.295H10.186L12.2102 196.271L13.2155 195.266L14.6384 193.843V204.57C14.7945 204.726 14.8863 204.818 15.0424 204.974H19.0863C19.2424 204.818 19.3342 204.726 19.4902 204.57V188.986V185.957C19.3342 185.801 19.2424 185.709 19.0863 185.553H19.0909Z" fill="white"/>
<path d="M58.3363 113.648C62.111 113.648 65.171 110.588 65.171 106.813C65.171 103.039 62.111 99.9785 58.3363 99.9785C54.5616 99.9785 51.5015 103.039 51.5015 106.813C51.5015 110.588 54.5616 113.648 58.3363 113.648Z" fill="white"/>
<path d="M48.0363 47.9627L54.9032 41.0958L13.8074 0H2.50185C1.55628 0.950165 1.02382 1.47803 0.0736542 2.4282V13.7338L41.5825 55.2427C43.5884 52.6951 45.755 50.2486 48.0363 47.9673V47.9627Z" fill="white"/>
<path d="M109.297 21.0367L116.6 13.7338V2.4282C115.649 1.47803 115.122 0.950165 114.171 0H102.866L95.5674 7.29837L74.494 28.3718L51.4743 51.3961C48.9818 53.8886 46.6867 56.5279 44.589 59.2912C44.5202 59.383 44.4513 59.4702 44.3825 59.562C44.0703 59.9751 43.7628 60.3928 43.4598 60.8151C43.4369 60.8427 43.4185 60.8748 43.3956 60.9023C43.0559 61.3705 42.7254 61.8433 42.3995 62.3207C33.7792 74.8932 29.1339 89.7561 29.1339 105.331C29.1339 125.706 37.0657 144.861 51.4743 159.265L58.3412 166.132L65.2081 159.265C79.6166 144.857 87.5484 125.702 87.5484 105.331C87.5484 89.903 82.995 75.1732 74.5261 62.6741L68.6415 68.5587C65.7681 71.4322 63.2572 74.6086 61.1412 78.0283C71.2671 96.545 70.3399 119.546 58.3458 137.232C46.2461 119.395 45.4061 96.1548 55.8074 77.5601L55.789 77.5417C58.3136 73.0479 61.4671 68.8755 65.2127 65.1299L88.2461 42.0964L109.306 21.0367H109.297Z" fill="white"/>
<path d="M24.2774 105.331C24.2774 97.4082 25.4158 89.6416 27.619 82.2101C22.4872 75.6186 19.4256 67.338 19.4256 58.3367C19.4256 52.9157 20.5364 47.7517 22.5423 43.0606L8.12919 28.6475C2.96984 37.3458 1.90735e-06 47.4947 1.90735e-06 58.3367C1.90735e-06 77.8403 9.57968 95.0993 24.282 105.689C24.282 105.569 24.2728 105.45 24.2728 105.331H24.2774Z" fill="white"/>
<path d="M73.5113 22.4918L87.8969 8.10624C79.2215 2.9882 69.1369 0 58.3362 0C47.5355 0 37.4188 2.94689 28.7434 8.06951L43.1657 22.4918C47.8293 20.5135 52.9565 19.421 58.3408 19.421C63.725 19.421 68.8523 20.5135 73.5159 22.4918H73.5113Z" fill="white"/>
<path d="M94.1352 43.0646C96.1411 47.7557 97.2519 52.9151 97.2519 58.3361C97.2519 67.3374 94.1857 75.6181 89.0585 82.2095C91.2571 89.641 92.3955 97.4122 92.3955 105.33C92.3955 105.45 92.3863 105.569 92.3863 105.688C107.089 95.0941 116.673 77.8397 116.673 58.3361C116.673 47.4941 113.662 37.382 108.512 28.6836L94.1352 43.06V43.0646Z" fill="white"/>
</svg>
